<?xml version="1.0" standalone="no"?>
<!DOCTYPE svg PUBLIC "-//W3C//DTD SVG 20010904//EN"
 "http://www.w3.org/TR/2001/REC-SVG-20010904/DTD/svg10.dtd">
<svg version="1.0" xmlns="http://www.w3.org/2000/svg"
 width="918.000000pt" height="918.000000pt" viewBox="0 0 918.000000 918.000000"
 preserveAspectRatio="xMidYMid meet">

<g transform="translate(0.000000,918.000000) scale(0.100000,-0.100000)"
fill="#000000" stroke="none">
<path d="M6655 6791 c-38 -5 -92 -13 -120 -19 -27 -6 -71 -13 -96 -17 -26 -3
-54 -12 -64 -19 -17 -12 -16 -15 14 -47 142 -151 144 -152 167 -129 19 19 167
43 291 47 110 4 129 2 207 -23 169 -52 240 -147 240 -319 1 -122 -22 -190
-138 -412 -10 -18 -21 -35 -27 -38 -5 -4 -9 -13 -9 -21 0 -8 -16 -36 -35 -62
-20 -26 -69 -93 -110 -149 -40 -56 -95 -126 -122 -156 -26 -29 -70 -80 -98
-112 -99 -117 -251 -271 -297 -303 -37 -25 -47 -39 -46 -57 2 -21 6 -24 36
-20 25 3 49 20 95 67 34 35 82 80 107 100 55 45 165 152 321 313 5 6 24 28 42
51 17 23 59 73 92 111 121 142 215 281 291 433 81 161 116 366 82 484 -34 121
-164 230 -327 277 -76 22 -375 33 -496 20z"/>
<path d="M5683 5858 c-77 -22 -100 -44 -35 -34 20 3 66 8 102 11 35 3 72 8 82
11 19 6 26 -20 8 -31 -5 -3 -10 -29 -10 -57 0 -35 -5 -54 -16 -62 -10 -7 -14
-22 -12 -37 4 -24 4 -24 19 6 8 17 26 40 40 52 36 31 60 93 50 129 -7 28 -9
29 -82 31 -50 1 -98 -5 -146 -19z"/>
<path d="M2493 5785 c-24 -7 -36 -18 -44 -42 -6 -18 -14 -33 -19 -33 -4 0 -11
-11 -14 -24 -3 -13 -24 -54 -47 -91 -22 -37 -43 -83 -46 -101 -3 -19 -10 -34
-14 -34 -5 0 -9 -8 -9 -17 0 -9 -4 -30 -9 -47 -70 -229 -98 -405 -103 -626 -2
-131 11 -357 23 -390 5 -14 13 -55 18 -92 5 -38 17 -82 25 -99 9 -18 16 -45
16 -60 0 -15 5 -31 11 -35 7 -4 9 -22 6 -43 -3 -22 1 -44 9 -55 7 -10 10 -25
7 -34 -4 -10 -2 -13 5 -8 8 5 12 -1 12 -16 0 -39 23 -78 45 -78 11 1 47 14 80
30 33 17 67 30 77 30 10 0 18 4 18 8 0 5 26 22 58 39 34 17 56 35 54 42 -3 9
2 11 19 6 13 -3 19 -3 13 2 -6 4 -15 24 -19 43 -9 42 -22 60 -38 54 -7 -2 -19
20 -30 58 -10 35 -27 92 -38 128 -33 109 -49 226 -59 426 -7 150 -6 206 5 255
7 35 16 96 20 134 4 39 16 104 27 145 10 41 21 93 23 114 2 21 9 44 14 49 13
13 14 47 2 47 -5 0 -13 -10 -17 -22 l-6 -21 -14 24 c-8 15 -13 18 -14 9 0 -9
-9 -33 -20 -55 -11 -22 -20 -51 -20 -66 0 -15 -6 -42 -14 -60 -7 -19 -17 -56
-20 -84 -9 -58 -32 -143 -46 -165 -24 -39 23 338 49 388 14 28 32 152 25 175
-4 12 -14 27 -23 34 -12 9 -13 16 -5 29 18 30 34 28 34 -3 0 -26 2 -25 24 17
27 50 26 62 -3 36 -17 -16 -19 -16 -25 0 -3 9 -12 14 -21 10 -9 -3 -15 0 -15
8 0 15 27 29 40 21 10 -6 33 31 28 43 -2 4 -18 3 -35 -3z"/>
<path d="M5550 5684 c-43 -20 -66 -25 -103 -21 -35 3 -47 1 -43 -8 5 -15 -58
-38 -84 -30 -12 4 -26 -1 -39 -14 -12 -12 -27 -17 -40 -14 -20 5 -141 -53
-141 -68 0 -5 -5 -9 -12 -9 -6 0 -18 -7 -27 -15 -9 -9 -38 -30 -66 -48 -27
-18 -88 -63 -135 -101 -47 -37 -116 -93 -155 -124 -38 -31 -86 -71 -105 -89
-37 -34 -70 -43 -70 -19 0 8 7 22 16 31 9 9 14 19 11 22 -9 8 -79 -35 -95 -58
-7 -10 -19 -19 -25 -19 -7 0 -29 -16 -50 -35 -21 -18 -58 -41 -82 -51 -24 -9
-51 -27 -60 -41 -9 -13 -46 -43 -83 -67 -65 -42 -86 -59 -183 -152 -26 -24
-53 -44 -60 -44 -23 -1 -61 -38 -57 -56 2 -11 31 -25 89 -43 88 -27 127 -47
168 -88 13 -12 30 -23 37 -23 7 0 18 -16 24 -35 6 -19 15 -35 19 -35 22 0 82
-207 80 -275 -2 -49 0 -55 19 -48 20 8 116 77 142 103 9 9 31 26 49 36 17 10
31 24 31 31 0 8 12 19 28 25 40 18 102 68 102 83 0 7 12 18 28 24 40 16 94 58
113 88 9 14 33 33 53 42 20 9 42 27 49 40 7 14 37 44 67 68 83 67 130 107 180
155 25 24 90 84 145 132 90 79 215 204 215 214 0 2 14 20 30 39 33 37 38 53
16 53 -18 0 -66 -38 -66 -53 -1 -7 -21 -28 -46 -47 -25 -19 -69 -57 -98 -85
-68 -65 -123 -108 -172 -135 -21 -12 -46 -28 -54 -36 -8 -7 -25 -22 -37 -34
-13 -11 -25 -20 -28 -20 -3 0 -15 -9 -27 -20 -12 -11 -24 -18 -26 -15 -2 2 8
15 24 28 16 14 43 38 60 53 17 16 51 47 75 68 63 56 175 164 237 230 29 31 59
56 65 56 7 0 28 32 47 71 19 39 44 78 55 87 28 23 75 135 68 161 -4 15 3 30
21 48 14 14 26 31 26 38 0 7 3 27 6 44 6 30 6 31 -32 31 -22 0 -64 -12 -94
-26z m-30 -95 c-14 -12 -47 -42 -75 -67 -27 -26 -106 -94 -175 -152 -69 -57
-127 -107 -130 -110 -11 -11 -116 -97 -138 -112 -12 -8 -42 -33 -65 -55 -23
-22 -49 -44 -59 -49 -9 -5 -34 -25 -55 -44 -31 -29 -86 -74 -148 -123 -5 -4
-21 -17 -35 -28 -14 -12 -59 -47 -100 -78 -41 -31 -85 -68 -98 -83 -23 -27
-52 -37 -52 -18 0 5 6 14 13 19 52 43 291 253 325 288 24 24 47 43 52 43 4 0
27 23 50 51 40 47 42 50 22 56 -12 3 -19 9 -17 13 3 5 -8 16 -24 26 l-29 17
35 34 c20 18 42 33 49 33 8 0 14 6 14 14 0 20 145 140 191 158 9 4 55 31 101
60 45 30 104 63 129 76 49 24 154 49 209 50 l35 1 -25 -20z m-1000 -501 c0
-12 -70 -78 -82 -78 -4 0 -21 -13 -38 -30 -31 -31 -50 -38 -50 -20 0 14 66 82
115 119 39 29 55 31 55 9z m-200 -172 c0 -8 -4 -17 -9 -21 -12 -7 -24 12 -16
25 9 15 25 12 25 -4z m-60 -50 c0 -14 -29 -31 -38 -21 -6 6 18 35 29 35 5 0 9
-6 9 -14z m-140 -126 c-8 -5 -17 -7 -19 -4 -3 3 1 9 9 14 8 5 17 7 19 4 3 -3
-1 -9 -9 -14z m820 4 c0 -11 -84 -84 -97 -84 -20 0 -16 6 30 49 37 36 67 51
67 35z m-716 -209 c-4 -8 -13 -15 -21 -15 -13 0 -13 3 -3 15 7 8 16 15 21 15
5 0 6 -7 3 -15z"/>
<path d="M6430 5549 c0 -5 5 -7 10 -4 6 3 10 8 10 11 0 2 -4 4 -10 4 -5 0 -10
-5 -10 -11z"/>
<path d="M5747 5500 c-3 -11 -1 -23 4 -26 5 -3 9 -1 9 5 0 5 3 16 6 25 3 9 2
16 -4 16 -5 0 -12 -9 -15 -20z"/>
<path d="M3780 5194 c-19 -7 -53 -13 -76 -13 -27 -1 -54 -10 -78 -26 -20 -14
-45 -25 -56 -25 -10 0 -35 -19 -54 -43 -21 -25 -59 -55 -91 -71 -30 -14 -62
-38 -71 -51 -9 -14 -22 -25 -30 -25 -16 0 -64 -43 -64 -59 0 -6 14 -11 32 -11
17 0 57 -4 87 -10 31 -5 103 -17 161 -25 58 -8 132 -20 165 -26 55 -11 63 -10
98 11 21 12 42 30 46 39 11 21 -13 32 -114 54 -88 19 -38 21 65 3 49 -9 81
-10 93 -4 10 5 53 45 95 87 42 43 88 82 102 86 14 4 41 16 60 27 19 11 57 28
84 38 28 9 56 27 65 40 12 19 13 22 2 15 -15 -8 -198 -33 -306 -40 -33 -2 -82
-11 -110 -19 -27 -9 -70 -15 -95 -14 l-45 1 40 6 c23 3 40 12 40 19 0 7 6 17
14 21 27 17 -20 29 -59 15z m-57 -81 c-7 -2 -19 -2 -25 0 -7 3 -2 5 12 5 14 0
19 -2 13 -5z m-93 -163 c20 -6 14 -8 -27 -9 -29 -1 -53 3 -53 9 0 12 44 12 80
0z"/>
<path d="M6776 5050 c-9 -38 -21 -50 -51 -50 -11 0 -25 -8 -31 -18 -6 -9 -24
-18 -40 -20 -16 -1 -34 -9 -40 -17 -6 -8 -24 -15 -40 -15 -20 0 -25 3 -15 9
22 14 -4 21 -32 8 -33 -15 -40 -32 -21 -47 11 -10 14 -9 14 4 0 24 19 19 29
-8 20 -51 12 -239 -16 -391 -24 -131 -25 -135 -36 -142 -6 -4 -8 28 -3 98 18
303 19 368 5 374 -20 7 -74 -9 -75 -23 -1 -7 -2 -17 -3 -22 -2 -16 -107 -80
-131 -80 -11 0 -20 -7 -20 -15 0 -18 -31 -35 -64 -35 -14 0 -26 -5 -26 -11 0
-5 -4 -8 -9 -4 -18 11 -16 -40 3 -59 36 -36 8 -109 -129 -340 -76 -129 -244
-367 -360 -511 -14 -16 -25 -35 -25 -40 0 -10 33 -27 78 -40 32 -9 40 -38 29
-109 -12 -85 -37 -123 -90 -134 -23 -6 -33 -10 -21 -11 24 -1 46 -25 95 -101
58 -90 99 -168 99 -187 -1 -13 -6 -9 -17 12 -16 32 -63 82 -63 67 0 -4 -18
-21 -40 -38 -22 -16 -40 -35 -40 -41 0 -7 -4 -13 -10 -13 -5 0 -13 -12 -16
-27 -4 -16 -9 -31 -11 -36 -6 -11 -33 19 -33 37 0 9 -4 16 -8 16 -5 0 -32 32
-61 70 -58 78 -80 86 -128 47 -15 -13 -41 -31 -58 -41 -28 -18 -30 -18 -40 -1
-20 34 -47 65 -56 65 -19 0 -8 -59 19 -96 36 -51 165 -268 187 -317 18 -39 12
-67 -8 -32 -6 11 -23 32 -38 47 -14 15 -24 30 -20 34 18 20 -51 -25 -92 -60
-36 -30 -47 -45 -43 -61 7 -27 -49 39 -65 78 -6 15 -15 27 -20 27 -5 0 -9 5
-9 10 0 6 -15 32 -33 58 -18 26 -38 58 -45 72 -7 14 -28 45 -46 68 -29 36 -35
40 -46 27 -7 -8 -22 -15 -33 -15 -19 0 -20 -4 -14 -90 6 -101 12 -94 -88 -105
-33 -3 -72 -8 -88 -11 -24 -5 -29 -2 -38 26 l-12 32 -76 -4 -76 -3 0 60 0 60
60 7 c33 4 70 12 83 18 13 5 41 10 64 10 31 0 46 6 64 25 17 18 19 25 8 25
-21 0 4 37 29 44 10 2 16 9 12 15 -8 13 -47 14 -60 2 -6 -5 -28 -11 -50 -14
-22 -3 -83 -10 -135 -17 -59 -8 -155 -10 -255 -7 -161 6 -256 23 -400 72 -146
50 -377 183 -496 286 l-56 48 -34 -19 c-19 -10 -72 -38 -119 -63 -47 -24 -94
-48 -105 -54 -63 -35 -174 -83 -191 -83 -10 0 -30 -9 -44 -20 -14 -11 -34 -20
-45 -20 -11 0 -29 -7 -39 -15 -11 -8 -28 -15 -38 -15 -10 0 -36 -9 -58 -20
-22 -11 -49 -20 -60 -20 -12 0 -34 -7 -50 -15 -27 -14 -29 -17 -18 -43 48
-109 206 -278 388 -412 19 -14 48 -37 64 -51 49 -41 139 -99 155 -99 16 0 112
-62 130 -84 8 -9 21 -16 30 -16 9 0 33 -11 53 -25 20 -14 45 -25 55 -25 10 0
52 -16 93 -37 41 -20 81 -36 88 -36 6 0 12 -3 12 -6 0 -5 22 -13 170 -56 25
-8 70 -17 100 -21 30 -4 60 -10 65 -14 35 -26 507 -62 528 -41 6 6 47 11 91
11 86 0 246 20 246 31 0 3 32 9 72 13 39 3 76 10 82 14 6 5 31 14 56 21 25 7
55 17 68 22 47 19 78 32 92 39 9 4 31 11 49 15 62 13 173 65 261 120 48 30 92
55 98 55 6 0 12 3 14 8 4 9 85 62 95 62 5 0 14 9 21 20 7 11 19 20 27 20 8 0
15 4 15 8 0 5 9 13 19 18 41 19 291 256 336 318 11 16 38 49 60 74 22 24 48
59 59 76 10 17 21 33 25 36 3 3 15 21 25 40 11 19 27 42 35 50 22 21 61 77 61
88 0 5 7 15 15 22 8 7 25 33 37 59 13 25 26 48 31 49 4 2 7 10 7 18 0 8 5 14
10 14 6 0 10 8 10 19 0 10 8 29 18 42 10 13 36 65 57 114 21 50 42 95 46 100
4 6 10 29 14 53 4 23 13 49 22 57 8 8 12 19 8 25 -6 10 8 77 24 115 19 44 35
116 46 210 3 22 11 63 17 90 17 72 15 488 -4 585 -14 75 -28 92 -39 48 -5 -19
-8 -15 -16 22 l-9 45 -8 -35z m-310 -820 l-14 -45 -1 42 c-1 23 4 45 9 48 6 3
11 16 11 28 2 19 2 19 6 -3 2 -14 -3 -45 -11 -70z m-16 -79 c0 -10 -7 -32 -16
-47 -15 -27 -15 -27 -10 -4 3 14 6 38 6 53 0 16 4 26 10 22 6 -3 10 -14 10
-24z m7 -353 c-3 -8 -6 -5 -6 6 -1 11 2 17 5 13 3 -3 4 -12 1 -19z m-2910
-475 c43 -21 81 -42 85 -48 4 -5 8 -30 8 -55 0 -25 6 -70 14 -100 8 -30 17
-74 21 -97 4 -24 11 -45 16 -48 10 -7 62 19 105 51 17 13 36 24 42 24 7 0 12
5 12 10 0 6 9 10 20 10 32 0 24 -35 -29 -135 -46 -87 -51 -91 -112 -122 -72
-37 -91 -40 -109 -18 -7 8 -25 15 -40 15 -33 0 -70 30 -70 58 0 12 -9 59 -19
104 -20 84 -41 238 -46 336 -4 64 -1 64 102 15z m-154 -70 c3 -21 12 -74 21
-118 22 -110 20 -144 -5 -166 -19 -17 -24 -17 -50 -4 -16 9 -32 15 -36 14 -21
-3 -33 2 -33 15 0 36 -55 21 -70 -20 -8 -20 -40 -35 -40 -18 0 3 25 47 55 99
30 51 55 96 55 99 0 12 82 136 90 136 4 0 10 -17 13 -37z m359 -102 c-5 -13
-3 -14 10 -4 16 14 28 8 28 -14 0 -17 -64 -18 -78 0 -5 6 -7 27 -5 44 l5 33
23 -22 c13 -13 20 -28 17 -37z m78 -61 c0 -11 -7 -20 -15 -20 -13 0 -13 3 -3
20 7 11 14 20 15 20 2 0 3 -9 3 -20z m249 -26 l107 -37 -93 -189 c-51 -104
-93 -193 -93 -198 0 -6 -4 -10 -10 -10 -5 0 -10 -7 -10 -16 0 -8 -4 -12 -10
-9 -5 3 -10 14 -10 24 0 20 -30 49 -82 78 l-36 21 -26 -27 c-14 -15 -26 -32
-26 -38 0 -5 -10 -21 -21 -34 l-22 -24 7 28 c4 16 36 89 71 163 36 74 65 139
65 145 0 5 11 31 25 57 13 26 29 59 34 75 6 15 13 27 17 27 3 0 54 -16 113
-36z m459 -112 c1 -40 6 -96 10 -125 l7 -52 85 4 c163 7 145 13 148 -45 l3
-51 -33 -1 c-18 -1 -73 -5 -122 -8 l-89 -6 7 -76 c3 -42 9 -87 12 -99 4 -13 2
-23 -3 -23 -13 0 -33 82 -33 134 0 42 -1 43 -32 43 -18 1 -56 -4 -85 -9 -57
-12 -61 -21 -64 -117 l-2 -46 -8 55 c-4 30 -13 123 -19 205 -6 83 -15 177 -20
210 -5 33 -6 63 -2 67 7 7 137 15 207 14 l30 -1 3 -73z m-288 54 c0 -11 -19
-15 -25 -6 -3 5 1 10 9 10 9 0 16 -2 16 -4z m1421 -60 c-7 -13 -23 -29 -35
-35 -11 -6 -34 -20 -51 -31 -46 -30 -55 -34 -67 -22 -7 7 4 20 37 44 77 53
105 79 106 96 0 13 3 11 11 -6 8 -17 8 -28 -1 -46z m-2225 -250 c10 -8 16 -17
12 -21 -4 -4 -19 2 -34 14 -30 24 -10 30 22 7z m736 -264 c-12 -8 -72 -4 -72
4 0 2 19 4 43 4 25 0 37 -4 29 -8z"/>
<path d="M6361 4886 c-8 -10 -9 -16 -1 -21 5 -3 10 0 10 9 0 8 6 17 13 19 7 4
8 6 1 6 -6 1 -17 -5 -23 -13z"/>
<path d="M6141 4701 c-12 -8 -12 -12 -2 -25 19 -23 29 -20 27 9 -1 27 -4 29
-25 16z"/>
<path d="M6110 4655 c0 -8 -8 -16 -17 -17 -10 0 -23 -2 -29 -2 -5 -1 -24 -15
-40 -32 -16 -17 -44 -37 -62 -45 -18 -8 -32 -17 -32 -20 0 -4 -13 -12 -29 -19
-16 -6 -39 -22 -52 -36 -12 -13 -27 -24 -33 -24 -6 0 -24 -14 -41 -31 -16 -17
-42 -37 -57 -45 -16 -8 -28 -19 -28 -24 0 -6 -4 -10 -10 -10 -5 0 -18 -7 -27
-15 -10 -8 -27 -21 -38 -29 -41 -31 27 -3 105 43 41 24 93 54 115 66 22 13 60
42 85 64 25 22 49 41 54 41 4 0 6 6 3 14 -4 10 0 12 14 9 15 -4 18 -2 13 11
-5 12 0 16 19 16 20 0 24 4 20 20 -4 15 0 20 16 20 11 0 21 5 21 10 0 6 11 10
25 10 18 0 25 5 25 20 0 11 -4 20 -10 20 -5 0 -10 -7 -10 -15z"/>
<path d="M1838 4469 c-13 -17 -48 -56 -78 -87 -69 -72 -139 -155 -165 -195
-11 -18 -32 -43 -47 -55 -16 -13 -28 -31 -28 -41 0 -9 -22 -43 -48 -76 -45
-56 -63 -85 -67 -110 -2 -15 -14 -44 -41 -100 -13 -27 -31 -74 -39 -102 -9
-29 -20 -53 -25 -53 -16 0 -30 -71 -19 -92 7 -14 7 -34 -1 -68 -12 -50 1 -136
19 -125 13 7 51 -43 67 -87 3 -10 11 -18 16 -18 6 0 8 -9 5 -20 -3 -11 -1 -17
4 -14 6 3 18 -4 28 -15 10 -12 23 -21 30 -21 6 0 11 -3 11 -8 0 -4 12 -12 28
-19 15 -7 50 -22 77 -34 28 -12 68 -26 90 -32 60 -15 310 -20 395 -7 234 35
326 53 425 85 159 51 167 53 205 60 19 4 44 13 55 20 11 7 36 16 55 20 19 4
40 11 45 15 6 4 21 10 35 13 49 11 126 43 155 64 17 11 66 39 110 61 121 60
147 75 186 105 20 15 40 27 45 27 5 0 22 11 37 24 16 14 48 33 73 43 31 13 47
26 54 48 8 23 7 31 -5 37 -8 5 -15 14 -15 20 0 7 5 6 15 -2 12 -10 15 -10 15
3 0 9 -4 19 -10 22 -5 3 -10 14 -10 23 0 9 -7 25 -15 35 -13 18 -15 18 -44 -4
-17 -12 -34 -20 -38 -16 -3 4 -1 7 5 7 7 0 12 7 12 15 0 8 -2 15 -3 15 -11 0
-75 -35 -92 -50 -32 -28 -76 -53 -290 -159 -232 -115 -268 -131 -287 -131 -8
0 -18 -4 -23 -8 -12 -10 -101 -44 -175 -67 -30 -10 -62 -21 -71 -26 -20 -9
-96 -24 -89 -16 3 3 34 17 70 32 111 45 247 113 255 126 5 6 9 23 11 36 2 18
-3 23 -20 23 -12 0 -38 8 -58 19 -21 10 -40 16 -43 13 -5 -5 -29 -14 -190 -72
-49 -18 -94 -36 -100 -40 -17 -13 -155 -39 -272 -50 -124 -13 -165 -6 -215 36
-24 19 -25 23 -10 29 14 5 12 11 -18 36 -61 52 -70 62 -70 81 0 12 4 16 11 12
8 -5 9 6 3 37 -22 119 5 293 56 369 10 14 36 59 58 101 39 73 40 77 26 105
-14 27 -36 158 -36 212 0 29 -2 28 -30 -9z m-186 -396 c-11 -21 -26 -51 -33
-67 -10 -20 -15 -24 -17 -13 -4 20 60 146 65 130 3 -7 -4 -30 -15 -50z m-52
-117 c0 -3 -4 -8 -10 -11 -5 -3 -10 -1 -10 4 0 6 5 11 10 11 6 0 10 -2 10 -4z"/>
<path d="M4979 4464 c-10 -12 -10 -20 -1 -35 17 -26 16 -31 -14 -75 -15 -21
-33 -55 -41 -74 l-13 -35 5 40 c3 22 8 59 12 83 3 25 2 42 -4 42 -6 0 -35 -26
-66 -57 -31 -32 -64 -66 -74 -75 -10 -9 -27 -40 -37 -68 -20 -54 -41 -74 -93
-83 -37 -7 -113 -58 -159 -107 -36 -39 -35 -31 -52 -320 -9 -155 -6 -220 11
-220 5 0 35 20 65 45 30 25 58 45 63 45 5 0 15 13 24 29 9 19 25 32 45 36 17
4 38 17 46 30 9 14 24 27 35 30 23 8 96 84 114 119 8 14 17 51 21 82 7 56 26
109 36 99 3 -3 3 5 1 19 -3 13 2 34 10 47 8 13 20 56 27 94 7 39 21 85 31 103
11 18 19 40 19 48 0 8 9 34 20 57 11 23 23 59 27 79 5 35 4 38 -19 38 -14 0
-31 -7 -39 -16z m-402 -701 c-3 -10 -5 -4 -5 12 0 17 2 24 5 18 2 -7 2 -21 0
-30z"/>
<path d="M4081 4094 c0 -11 3 -14 6 -6 3 7 2 16 -1 19 -3 4 -6 -2 -5 -13z"/>
<path d="M4055 4018 c-10 -15 -11 -24 -5 -26 11 -4 39 25 40 41 0 15 -19 6
-35 -15z"/>
<path d="M2698 3623 c7 -3 16 -2 19 1 4 3 -2 6 -13 5 -11 0 -14 -3 -6 -6z"/>
</g>
</svg>
